<svg width="255" height="60" viewBox="0 0 255 60" fill="none" xmlns="http://www.w3.org/2000/svg">
<path fill-rule="evenodd" clip-rule="evenodd" d="M48.1803 59.7573L0 0H48.1803C64.5549 0 77.8295 13.3771 77.8295 29.8786C77.8295 46.38 64.5549 59.7573 48.1803 59.7573ZM70.417 29.8786C70.417 41.1153 62.2103 50.4204 51.5071 52.0384L42.605 40.9969C43.8157 37.5147 44.4741 33.772 44.4741 29.8786C44.4741 21.2696 41.2625 13.4165 35.9806 7.46965H48.1803C60.4614 7.46965 70.417 17.5025 70.417 29.8786ZM37.0616 29.8786C37.0616 31.2011 36.9644 32.5 36.7769 33.7685L15.5731 7.46965H24.4888C32.0228 12.0444 37.0616 20.3685 37.0616 29.8786ZM101.848 23.1176C101.848 22.4771 101.566 22.0105 101.003 21.7176C99.6229 21.0039 98.1247 20.6471 96.5085 20.6471C94.6379 20.6471 92.9583 21.068 91.4691 21.9098C89.9798 22.7333 88.8085 23.8863 87.9551 25.3686C87.1196 26.851 86.702 28.5255 86.702 30.3922C86.702 32.4967 87.1468 34.2902 88.0368 35.7725C88.9268 37.2549 90.116 38.3804 91.6053 39.149C93.0945 39.8992 94.729 40.2745 96.5085 40.2745C98.1068 40.2745 99.6139 39.9176 101.03 39.2039C101.303 39.0758 101.512 38.8928 101.657 38.6549C101.802 38.417 101.875 38.1516 101.875 37.8588C101.875 37.4562 101.739 37.0811 101.466 36.7333C101.139 36.3307 100.74 36.1294 100.268 36.1294C100.014 36.1294 99.7229 36.2026 99.396 36.349C98.5788 36.7699 97.6164 36.9804 96.5085 36.9804C94.6379 36.9804 93.1218 36.4222 91.9594 35.3059C90.8153 34.1895 90.2433 32.5516 90.2433 30.3922C90.2433 29.1294 90.4974 28.0131 91.006 27.0431C91.5146 26.0549 92.2408 25.2954 93.1852 24.7647C94.1297 24.2157 95.2372 23.9412 96.5085 23.9412C97.5437 23.9412 98.506 24.1516 99.396 24.5725C99.7046 24.7373 100.014 24.8196 100.322 24.8196C100.776 24.8196 101.148 24.6275 101.439 24.2431C101.711 23.8771 101.848 23.502 101.848 23.1176ZM117.428 25.5059C117.119 25.1948 116.729 25.0392 116.257 25.0392C115.784 25.0392 115.394 25.2039 115.085 25.5333C114.776 25.8444 114.622 26.2379 114.622 26.7137V26.7412C114.095 26.2471 113.451 25.8444 112.688 25.5333C111.925 25.2039 111.108 25.0392 110.236 25.0392C109.02 25.0392 107.903 25.3686 106.886 26.0275C105.887 26.668 105.097 27.5738 104.516 28.7451C103.935 29.898 103.644 31.2065 103.644 32.6706C103.644 34.1346 103.935 35.4431 104.516 36.5961C105.115 37.749 105.923 38.6549 106.94 39.3137C107.957 39.9541 109.092 40.2745 110.345 40.2745C111.199 40.2745 112.007 40.0914 112.77 39.7255C113.55 39.3412 114.168 38.8836 114.622 38.3529C114.64 38.8287 114.795 39.2224 115.085 39.5333C115.394 39.8443 115.784 40 116.257 40C116.729 40 117.119 39.8443 117.428 39.5333C117.737 39.2039 117.891 38.8013 117.891 38.3255V26.7137C117.891 26.2196 117.737 25.817 117.428 25.5059ZM113.642 35.9647C112.897 36.8248 111.934 37.2549 110.754 37.2549C109.573 37.2549 108.611 36.8248 107.867 35.9647C107.14 35.0863 106.777 33.9882 106.777 32.6706C106.777 31.3529 107.149 30.2549 107.894 29.3765C108.638 28.498 109.592 28.0588 110.754 28.0588C111.934 28.0588 112.897 28.498 113.642 29.3765C114.386 30.2549 114.758 31.3529 114.758 32.6706C114.758 33.9882 114.386 35.0863 113.642 35.9647ZM124.484 39.5333C124.811 39.2039 124.975 38.8013 124.975 38.3255V21.3608C124.975 20.885 124.82 20.4915 124.512 20.1804C124.203 19.851 123.822 19.6863 123.367 19.6863C122.895 19.6863 122.496 19.851 122.169 20.1804C121.86 20.4915 121.706 20.885 121.706 21.3608V38.3255C121.706 38.8013 121.86 39.2039 122.169 39.5333C122.477 39.8443 122.859 40 123.313 40C123.785 40 124.176 39.8443 124.484 39.5333ZM149.315 26.7137C148.625 25.5974 147.381 25.0392 145.583 25.0392C144.511 25.0392 143.549 25.3503 142.695 25.9726C141.86 26.5948 141.234 27.2902 140.816 28.0588C140.18 26.0458 138.718 25.0392 136.43 25.0392C135.504 25.0392 134.659 25.2771 133.897 25.7529C133.152 26.2105 132.535 26.7686 132.044 27.4275V26.9882C132.044 26.5124 131.89 26.1189 131.581 25.8078C131.273 25.4784 130.882 25.3137 130.41 25.3137C129.938 25.3137 129.548 25.4784 129.239 25.8078C128.93 26.1189 128.775 26.5124 128.775 26.9882V38.3255C128.775 38.8013 128.93 39.2039 129.239 39.5333C129.548 39.8443 129.938 40 130.41 40C130.882 40 131.273 39.8443 131.581 39.5333C131.89 39.2039 132.044 38.8013 132.044 38.3255V31.298C132.044 30.3647 132.326 29.5961 132.889 28.9922C133.47 28.3699 134.269 28.0588 135.286 28.0588C136.267 28.0588 136.948 28.3516 137.329 28.9373C137.729 29.5046 137.928 30.2915 137.928 31.298V38.3255C137.928 38.8013 138.083 39.2039 138.391 39.5333C138.7 39.8443 139.091 40 139.563 40C140.035 40 140.425 39.8443 140.734 39.5333C141.043 39.2039 141.197 38.8013 141.197 38.3255V31.298C141.197 30.3647 141.479 29.5961 142.041 28.9922C142.623 28.3699 143.422 28.0588 144.439 28.0588C145.419 28.0588 146.1 28.3516 146.482 28.9373C146.881 29.5046 147.081 30.2915 147.081 31.298V38.3255C147.081 38.8013 147.235 39.2039 147.544 39.5333C147.853 39.8443 148.243 40 148.715 40C149.188 40 149.578 39.8443 149.887 39.5333C150.196 39.2039 150.35 38.8013 150.35 38.3255V31.298C150.35 29.3399 150.005 27.8118 149.315 26.7137ZM174.353 22.0745C173.136 21.2144 171.674 20.7843 169.967 20.7843H163.457C162.984 20.7843 162.585 20.949 162.258 21.2784C161.949 21.5895 161.795 21.983 161.795 22.4588V38.3255C161.795 38.8013 161.949 39.2039 162.258 39.5333C162.585 39.8443 162.984 40 163.457 40H169.967C171.674 40 173.136 39.5792 174.353 38.7373C175.588 37.8771 176.523 36.7242 177.159 35.2784C177.812 33.8144 178.139 32.1856 178.139 30.3922C178.139 28.5987 177.812 26.9791 177.159 25.5333C176.523 24.0693 175.588 22.9164 174.353 22.0745ZM173.372 35.0314C172.555 36.2392 171.329 36.8431 169.695 36.8431H165.2V23.9412H169.695C171.311 23.9412 172.528 24.5542 173.345 25.7804C174.18 26.9882 174.598 28.5255 174.598 30.3922C174.598 32.2588 174.189 33.8052 173.372 35.0314ZM189.93 25.5059C189.566 25.1948 189.113 25.0392 188.568 25.0392C187.678 25.0392 186.842 25.2405 186.062 25.6431C185.281 26.0275 184.682 26.5948 184.264 27.3451V26.9882C184.264 26.5124 184.109 26.1189 183.801 25.8078C183.492 25.4784 183.102 25.3137 182.63 25.3137C182.157 25.3137 181.767 25.4784 181.458 25.8078C181.149 26.1189 180.995 26.5124 180.995 26.9882V38.3255C180.995 38.8013 181.149 39.2039 181.458 39.5333C181.767 39.8443 182.157 40 182.63 40C183.102 40 183.492 39.8443 183.801 39.5333C184.109 39.2039 184.264 38.8013 184.264 38.3255V31.8196C184.264 30.9961 184.4 30.2915 184.673 29.7059C184.963 29.102 185.326 28.6536 185.762 28.3608C186.198 28.068 186.652 27.9216 187.124 27.9216C187.342 27.9216 187.542 27.949 187.723 28.0039C187.923 28.0588 188.05 28.0954 188.105 28.1137C188.45 28.2418 188.759 28.3059 189.031 28.3059C189.43 28.3059 189.775 28.1686 190.066 27.8941C190.356 27.6013 190.502 27.1713 190.502 26.6039C190.502 26.183 190.311 25.817 189.93 25.5059ZM195.421 39.5333C195.73 39.2039 195.884 38.8013 195.884 38.3255V26.9882C195.884 26.5124 195.73 26.1189 195.421 25.8078C195.113 25.4784 194.722 25.3137 194.25 25.3137C193.778 25.3137 193.388 25.4784 193.079 25.8078C192.77 26.1189 192.615 26.5124 192.615 26.9882V38.3255C192.615 38.8013 192.77 39.2039 193.079 39.5333C193.388 39.8443 193.778 40 194.25 40C194.722 40 195.113 39.8443 195.421 39.5333ZM192.915 23.2275C193.17 23.4287 193.605 23.5294 194.223 23.5294C194.858 23.5294 195.303 23.4379 195.557 23.2549C195.83 23.0536 195.966 22.6876 195.966 22.1569V21.6353C195.966 21.1229 195.839 20.766 195.585 20.5647C195.331 20.3634 194.886 20.2627 194.25 20.2627C193.651 20.2627 193.215 20.3634 192.942 20.5647C192.67 20.766 192.534 21.1229 192.534 21.6353V22.1569C192.534 22.6693 192.661 23.0262 192.915 23.2275ZM211.529 25.7804C211.239 25.4876 210.875 25.3412 210.44 25.3412C210.131 25.3229 209.85 25.4052 209.595 25.5882C209.341 25.7713 209.141 26.0366 208.996 26.3843L205.264 35.0314L201.505 26.3569C201.36 26.0275 201.142 25.7713 200.851 25.5882C200.561 25.4052 200.243 25.3137 199.898 25.3137C199.444 25.3137 199.062 25.4693 198.753 25.7804C198.445 26.0732 198.29 26.4026 198.29 26.7686C198.29 27.0615 198.354 27.3542 198.481 27.6471L203.548 38.9569C203.693 39.2863 203.893 39.5518 204.147 39.7529C204.419 39.9361 204.71 40.0275 205.019 40.0275L205.264 40C205.573 39.9816 205.845 39.8812 206.081 39.698C206.335 39.5149 206.526 39.2678 206.653 38.9569L211.747 27.6471C211.893 27.3176 211.965 27.0431 211.965 26.8235C211.965 26.4026 211.82 26.0549 211.529 25.7804ZM217.155 39.5333C217.464 39.2039 217.618 38.8013 217.618 38.3255V26.9882C217.618 26.5124 217.464 26.1189 217.155 25.8078C216.846 25.4784 216.456 25.3137 215.984 25.3137C215.512 25.3137 215.121 25.4784 214.812 25.8078C214.503 26.1189 214.349 26.5124 214.349 26.9882V38.3255C214.349 38.8013 214.503 39.2039 214.812 39.5333C215.121 39.8443 215.512 40 215.984 40C216.456 40 216.846 39.8443 217.155 39.5333ZM214.649 23.2275C214.903 23.4287 215.339 23.5294 215.957 23.5294C216.592 23.5294 217.037 23.4379 217.291 23.2549C217.564 23.0536 217.7 22.6876 217.7 22.1569V21.6353C217.7 21.1229 217.573 20.766 217.319 20.5647C217.064 20.3634 216.619 20.2627 215.984 20.2627C215.384 20.2627 214.949 20.3634 214.676 20.5647C214.404 20.766 214.268 21.1229 214.268 21.6353V22.1569C214.268 22.6693 214.395 23.0262 214.649 23.2275ZM232.609 26.7137C231.901 25.5974 230.621 25.0392 228.768 25.0392C227.824 25.0392 226.952 25.2771 226.153 25.7529C225.372 26.2287 224.737 26.7961 224.247 27.4549V26.9882C224.247 26.5124 224.092 26.1189 223.783 25.8078C223.474 25.4784 223.084 25.3137 222.612 25.3137C222.14 25.3137 221.749 25.4784 221.441 25.8078C221.132 26.1189 220.978 26.5124 220.978 26.9882V38.3255C220.978 38.8013 221.132 39.2039 221.441 39.5333C221.749 39.8443 222.14 40 222.612 40C223.084 40 223.474 39.8443 223.783 39.5333C224.092 39.2039 224.247 38.8013 224.247 38.3255V31.298C224.247 30.3647 224.546 29.5961 225.145 28.9922C225.745 28.3699 226.571 28.0588 227.624 28.0588C228.641 28.0588 229.358 28.3516 229.776 28.9373C230.194 29.5046 230.403 30.2915 230.403 31.298V38.3255C230.403 38.8013 230.557 39.2039 230.866 39.5333C231.174 39.8443 231.565 40 232.037 40C232.509 40 232.9 39.8443 233.209 39.5333C233.517 39.2039 233.672 38.8013 233.672 38.3255V31.298C233.672 29.3399 233.318 27.8118 232.609 26.7137ZM250.444 25.5059C250.135 25.1948 249.744 25.0392 249.272 25.0392C248.8 25.0392 248.409 25.2039 248.101 25.5333C247.792 25.8444 247.638 26.2379 247.638 26.7137V27.0157C247.147 26.4667 246.503 26 245.704 25.6157C244.905 25.2314 244.042 25.0392 243.116 25.0392C241.863 25.0392 240.719 25.3686 239.684 26.0275C238.667 26.668 237.858 27.5738 237.259 28.7451C236.678 29.898 236.388 31.2065 236.388 32.6706C236.388 34.1346 236.687 35.4431 237.286 36.5961C237.886 37.749 238.703 38.6549 239.738 39.3137C240.791 39.9541 241.953 40.2745 243.225 40.2745C244.151 40.2745 245.014 40.0459 245.813 39.5882C246.63 39.1307 247.238 38.6183 247.638 38.051V39.3686C247.638 40.3569 247.302 41.1165 246.63 41.6471C245.976 42.1961 244.977 42.4706 243.633 42.4706C242.961 42.4706 242.208 42.3059 241.372 41.9765C240.555 41.6655 240.11 41.5008 240.038 41.4824C239.874 41.4275 239.702 41.4 239.52 41.4C239.212 41.4 238.921 41.5008 238.648 41.702C238.394 41.9216 238.213 42.2326 238.104 42.6353C238.049 42.8 238.022 42.9463 238.022 43.0745C238.022 43.7518 238.467 44.2824 239.357 44.6667C239.756 44.8498 240.428 45.0326 241.372 45.2157C242.335 45.3988 243.089 45.4902 243.633 45.4902C245.74 45.4902 247.474 44.9502 248.836 43.8706C250.217 42.809 250.907 41.162 250.907 38.9294V26.7137C250.907 26.2196 250.752 25.817 250.444 25.5059ZM246.603 35.9647C245.84 36.8248 244.85 37.2549 243.633 37.2549C242.417 37.2549 241.427 36.8248 240.664 35.9647C239.902 35.0863 239.52 33.9882 239.52 32.6706C239.52 31.3529 239.902 30.2549 240.664 29.3765C241.427 28.498 242.417 28.0588 243.633 28.0588C244.85 28.0588 245.84 28.498 246.603 29.3765C247.384 30.2549 247.774 31.3529 247.774 32.6706C247.774 33.9882 247.384 35.0863 246.603 35.9647Z" fill="white"/>
</svg>
