<svg width="60" height="60" viewBox="0 0 60 60" fill="none" xmlns="http://www.w3.org/2000/svg">
<path d="M1.42857 30H0H1.42857ZM12.1429 30H10.7143H12.1429ZM30 47.8571V49.2857V47.8571ZM47.8571 30H49.2857H47.8571ZM30 0C22.0435 0 14.4129 3.16071 8.7868 8.7868L10.8071 10.8071C15.8974 5.71683 22.8013 2.85714 30 2.85714V0ZM8.7868 8.7868C3.16071 14.4129 0 22.0435 0 30H2.85714C2.85714 22.8013 5.71683 15.8974 10.8071 10.8071L8.7868 8.7868ZM0 30C0 37.9566 3.16071 45.5871 8.7868 51.2131L10.8071 49.1929C5.71683 44.1026 2.85714 37.1989 2.85714 30H0ZM8.7868 51.2131C14.4129 56.8394 22.0435 60 30 60V57.1429C22.8013 57.1429 15.8974 54.2831 10.8071 49.1929L8.7868 51.2131ZM30 60C37.9566 60 45.5871 56.8394 51.2131 51.2131L49.1929 49.1929C44.1026 54.2831 37.1989 57.1429 30 57.1429V60ZM51.2131 51.2131C56.8394 45.5871 60 37.9566 60 30H57.1429C57.1429 37.1989 54.2831 44.1026 49.1929 49.1929L51.2131 51.2131ZM60 30C60 22.0435 56.8394 14.4129 51.2131 8.7868L49.1929 10.8071C54.2831 15.8974 57.1429 22.8013 57.1429 30H60ZM51.2131 8.7868C45.5871 3.16071 37.9566 0 30 0V2.85714C37.1989 2.85714 44.1026 5.71683 49.1929 10.8071L51.2131 8.7868ZM30 10.7143C24.8851 10.7143 19.9797 12.7462 16.3629 16.3629L18.3833 18.3833C21.4642 15.3023 25.6429 13.5714 30 13.5714V10.7143ZM16.3629 16.3629C12.7462 19.9797 10.7143 24.8851 10.7143 30H13.5714C13.5714 25.6429 15.3023 21.4642 18.3833 18.3833L16.3629 16.3629ZM10.7143 30C10.7143 35.1149 12.7462 40.0203 16.3629 43.6371L18.3833 41.6169C15.3023 38.5357 13.5714 34.3571 13.5714 30H10.7143ZM16.3629 43.6371C19.9797 47.2537 24.8851 49.2857 30 49.2857V46.4286C25.6429 46.4286 21.4642 44.6977 18.3833 41.6169L16.3629 43.6371ZM30 49.2857C35.1149 49.2857 40.0203 47.2537 43.6371 43.6371L41.6169 41.6169C38.5357 44.6977 34.3571 46.4286 30 46.4286V49.2857ZM43.6371 43.6371C47.2537 40.0203 49.2857 35.1149 49.2857 30H46.4286C46.4286 34.3571 44.6977 38.5357 41.6169 41.6169L43.6371 43.6371ZM49.2857 30C49.2857 24.8851 47.2537 19.9797 43.6371 16.3629L41.6169 18.3833C44.6977 21.4642 46.4286 25.6429 46.4286 30H49.2857ZM43.6371 16.3629C40.0203 12.7462 35.1149 10.7143 30 10.7143V13.5714C34.3571 13.5714 38.5357 15.3023 41.6169 18.3833L43.6371 16.3629ZM18.3933 14.5988C12.19 19.5614 8.67769 25.552 8.04157 32.5491C7.41023 39.4943 9.63046 47.2326 14.4739 55.7089L16.9546 54.2911C12.2743 46.1006 10.3279 38.9583 10.887 32.808C11.4413 26.7099 14.4767 21.391 20.1781 16.8298L18.3933 14.5988ZM41.6066 45.4011C47.804 40.4434 51.3211 34.5191 51.9583 27.5802C52.5903 20.6955 50.3671 13.0196 45.526 4.54757L43.0454 5.96511C47.728 14.1597 49.6714 21.2367 49.1131 27.319C48.5597 33.3471 45.5294 38.6043 39.822 43.1703L41.6066 45.4011Z" fill="white"/>
</svg>
