<svg width="110" height="60" viewBox="0 0 110 60" fill="none" xmlns="http://www.w3.org/2000/svg">
<g clip-path="url(#clip0_82_155)">
<path fill-rule="evenodd" clip-rule="evenodd" d="M88.691 3.5135C88.691 3.2064 88.5164 2.92565 88.24 2.7883L82.8008 0.0856018C82.571 -0.0285309 82.3008 -0.0285309 82.0711 0.0856018L55.2404 13.4178L28.4097 0.0855995C28.18 -0.0285332 27.9096 -0.0285332 27.6799 0.0855995L22.2408 2.7883C21.9644 2.92565 21.7898 3.2064 21.7898 3.5135V30.5406C21.7898 30.8477 21.9644 31.1284 22.2408 31.2657L27.6799 33.9684C27.9096 34.0826 28.18 34.0826 28.4096 33.9684L49.8012 23.339L54.8756 25.8604C55.1053 25.9745 55.3755 25.9745 55.6053 25.8604L60.6796 23.339L82.0711 33.9684C82.3008 34.0826 82.571 34.0826 82.8008 33.9684L88.24 31.2657C88.5164 31.1284 88.691 30.8477 88.691 30.5406V3.5135ZM44.3623 20.6362L47.9769 22.4324L28.0448 32.3368L24.43 30.5406L44.3623 20.6362ZM42.5377 19.7297L23.4215 29.2286V4.01462L27.2289 2.12273V22.4324C27.2289 22.7134 27.3753 22.9744 27.6159 23.1222C27.8564 23.2699 28.1568 23.2833 28.4097 23.1576L38.9231 17.9335L42.5377 19.7297ZM28.8607 21.1205V2.12273L54.8756 15.0495C55.1053 15.1637 55.3755 15.1637 55.6053 15.0495L81.62 2.12273V21.1205L77.8129 19.2286V14.3406C77.8129 14.3341 77.8129 14.3275 77.8129 14.3209C77.8129 14.3162 77.8129 14.3115 77.8129 14.3068V8.91892C77.8129 8.63793 77.6664 8.37694 77.4258 8.22921C77.1853 8.08148 76.8851 8.06806 76.6322 8.1937L55.2404 18.8232L33.8487 8.1937C33.5958 8.06802 33.2955 8.08148 33.055 8.22921C32.8145 8.37694 32.6681 8.63793 32.6681 8.91892V14.3067C32.6678 14.318 32.6678 14.3294 32.6681 14.3407V19.2286L28.8607 21.1205ZM83.2518 22.4324V2.12273L87.0593 4.01462V29.2286L67.9428 19.7297L71.5578 17.9335L82.0711 23.1576C82.324 23.2833 82.6245 23.2699 82.8651 23.1222C83.1056 22.9744 83.2518 22.7134 83.2518 22.4324ZM66.1186 20.6362L86.0509 30.5406L82.4359 32.3368L62.5039 22.4324L66.1186 20.6362ZM76.1811 13.8232L71.1929 16.3018L55.2404 24.2286L39.2886 16.3021L39.2879 16.3018L34.2997 13.8232V10.2308L54.8756 20.4549C55.1053 20.5691 55.3755 20.5691 55.6053 20.4549L76.1811 10.2308V13.8232ZM37.0988 17.027L34.2997 15.6363V18.4178L37.0988 17.027ZM73.3821 17.027L76.1811 15.6363V18.4178L73.3821 17.027ZM1 55.6216V41.4694H2.50194L7.66835 53.7973H7.7935L12.9599 41.4694H14.4618V55.6216H13.238V44.1989H13.1268L8.32196 55.6216H7.13986L2.33506 44.1989H2.2238V55.6216H1ZM24.2835 53.9423C23.8385 54.8822 22.7538 55.8636 20.9737 55.8636C19.0337 55.8636 17.4622 54.7025 17.4622 52.657C17.4622 50.5563 19.1519 49.8859 21.5647 49.5889C21.7678 49.5639 21.9607 49.5415 22.1431 49.5204C23.5726 49.3547 24.36 49.2632 24.36 48.5523V48.3036C24.36 46.8525 23.463 45.9678 21.8429 45.9678C20.2992 45.9678 19.3327 46.7488 18.9433 47.6611L17.7682 47.2395C18.4913 45.505 20.1741 44.8622 21.8081 44.8622C23.4422 44.8622 25.5977 45.5672 25.5977 48.4142V55.6216H24.36V53.9423H24.2835ZM18.6999 52.7124C18.6999 53.9977 19.7429 54.7372 21.1406 54.7372C23.1153 54.7372 24.36 53.293 24.36 51.5514V50.0173C23.9984 50.3698 22.4409 50.5631 21.5647 50.6669C19.7568 50.8881 18.6999 51.4271 18.6999 52.7124ZM30.1279 55.6216H28.8902V41.4694H30.1279V50.0037H30.2809L35.2872 45.0075H36.8517L32.2835 49.5545L37.1301 55.6216H35.5447L31.3586 50.363L30.1279 51.5098V55.6216ZM40.4363 55.6216H39.1916V45.0075H40.4363V55.6216ZM40.7561 42.2984C40.7561 42.7823 40.3319 43.1831 39.8244 43.1831C39.317 43.1831 38.8996 42.7823 38.8996 42.2984C38.8996 41.8148 39.317 41.4139 39.8244 41.4139C40.3319 41.4139 40.7561 41.8148 40.7561 42.2984ZM47.8539 45.9957C46.1712 45.9957 44.9474 47.1357 44.9474 48.9876V55.6216H43.7096V45.0075H44.9125V46.6729H45.0238C45.5244 45.588 46.6023 44.8693 48.1668 44.8693C50.3224 44.8693 51.7896 46.2305 51.7896 48.7459V55.6216H50.5518V48.8218C50.5518 47.0874 49.4947 45.9957 47.8539 45.9957ZM63.5322 55.8979C63.5322 58.5931 61.6548 59.8232 59.1236 59.8232C56.9404 59.8232 55.5775 58.9109 54.9516 57.6947L55.9669 57.0315C56.4189 57.84 57.2948 58.7173 59.1236 58.7173C61.0151 58.7173 62.2876 57.7985 62.2876 55.8221V53.4311H62.1763C61.752 54.4054 60.8134 55.511 58.8942 55.511C56.3353 55.511 54.4996 53.5417 54.4996 50.2868C54.4996 47.0598 56.2727 44.8622 58.9151 44.8622C60.8758 44.8622 61.7589 46.0784 62.1972 47.0322H62.3222V45.0075H63.5322V55.8979ZM55.7443 50.2661C55.7443 52.6985 56.9195 54.3847 59.0401 54.3847C61.0984 54.3847 62.3084 52.8298 62.3084 50.2661C62.3084 47.7785 61.1333 45.9817 59.0401 45.9817C56.8986 45.9817 55.7443 47.8751 55.7443 50.2661ZM74.2629 45.0075H76.5228V46.0784H74.2629V52.8506C74.2629 54.1842 75.0347 54.5783 75.8763 54.5783C76.203 54.5783 76.4256 54.5299 76.5992 54.4813L76.8635 55.5941C76.6273 55.6839 76.2794 55.7805 75.7651 55.7805C74.395 55.7805 73.0182 54.8754 73.0182 53.1409V46.0784H71.4259V45.0075H73.0182V42.4644H74.2629V45.0075ZM87.6049 53.3549C87.118 54.6889 85.6788 55.8428 83.537 55.8428C80.547 55.8428 78.6699 53.5969 78.6699 50.3767C78.6699 47.1632 80.5819 44.8622 83.3494 44.8622C85.6648 44.8622 87.8693 46.5276 87.8693 50.0728V50.6809H79.9142C79.97 53.1341 81.3538 54.7164 83.537 54.7164C85.0529 54.7164 86.0195 53.9286 86.4298 52.9751L87.6049 53.3549ZM83.3494 45.9817C81.3955 45.9817 80.0536 47.6196 79.9214 49.5957H86.6037C86.6037 47.5505 85.2614 45.9817 83.3494 45.9817ZM98.8434 52.5259C98.5581 54.4469 96.9936 55.8428 94.7686 55.8428C91.8967 55.8428 90.0473 53.5278 90.0473 50.363C90.0473 47.1704 91.9525 44.8622 94.7477 44.8622C96.8895 44.8622 98.5444 46.189 98.8365 48.1586H97.5846C97.3206 46.956 96.2913 45.9817 94.7686 45.9817C92.7175 45.9817 91.292 47.7509 91.292 50.3215C91.292 52.9057 92.6757 54.7164 94.7686 54.7164C96.1872 54.7164 97.3066 53.8803 97.5918 52.5259H98.8434ZM105.696 45.9957C103.985 45.9957 102.734 47.1357 102.734 48.9876V55.6216H101.496V41.4694H102.734V46.6729H102.845C103.346 45.5741 104.396 44.8693 106.009 44.8693C108.178 44.8693 109.652 46.2165 109.652 48.7459V55.6216H108.408V48.8218C108.408 47.0734 107.351 45.9957 105.696 45.9957Z" fill="white"/>
</g>
<defs>
<clipPath id="clip0_82_155">
<rect width="110" height="60" fill="white"/>
</clipPath>
</defs>
</svg>
