<svg width="235" height="60" viewBox="0 0 235 60" fill="none" xmlns="http://www.w3.org/2000/svg">
<path fill-rule="evenodd" clip-rule="evenodd" d="M78.7897 23.4233C66.1955 7.94771 53.4349 0 40.5 0C27.5651 0 14.8045 7.94771 2.21024 23.4233C2.07424 23.5904 2 23.7991 2 24.0144V35.5529C2 35.7682 2.07424 35.977 2.21024 36.1441C14.8045 51.6195 27.5651 59.5672 40.5 59.5672C53.4349 59.5672 66.1955 51.6195 78.7897 36.1441C78.9256 35.977 79 35.7682 79 35.5529V24.0144C79 23.7991 78.9256 23.5904 78.7897 23.4233ZM10.8557 36.1154L3.87805 26.8269V35.2193C16.2524 50.3389 28.4625 57.6922 40.5 57.6922C52.4553 57.6922 64.5807 50.439 76.8684 35.528L68.6565 24.5962C59.1197 13.1775 49.4925 7.64423 39.7777 7.64423C30.2322 7.64423 20.3148 12.9847 10.0203 23.9892L14.3993 28.3611C22.9184 17.3034 31.6122 11.5385 40.5 11.5385C49.6014 11.5385 58.4996 17.584 67.2149 29.1677L72.9463 34.89C73.302 35.2449 73.3144 35.8164 72.9745 36.1864C62.2993 47.8133 51.7135 53.7983 41.2223 53.7983C30.717 53.7983 20.6062 47.799 10.8856 36.1531C10.8753 36.1408 10.8653 36.1282 10.8557 36.1154ZM77.1219 24.348V32.7404L70.1442 23.4519C70.1345 23.4391 70.1247 23.4265 70.1146 23.4142C60.3938 11.7685 50.2831 5.76923 39.7777 5.76923C29.2865 5.76923 18.7007 11.7542 8.02542 23.381C7.68572 23.7509 7.69815 24.3224 8.05363 24.6773L13.7852 30.3996C22.5005 41.9835 31.3985 48.0289 40.5 48.0289C49.3877 48.0289 58.0815 42.264 66.6007 31.2063L70.9796 35.5781C60.6853 46.5825 50.7677 51.9233 41.2223 51.9233C31.5077 51.9233 21.8801 46.3898 12.3437 34.9711L4.13153 24.0393C16.4192 9.12829 28.5447 1.875 40.5 1.875C52.5375 1.875 64.7475 9.22838 77.1219 24.348ZM40.5 46.1539C32.4153 46.1539 24.1333 40.8589 15.6735 29.7837C24.1333 18.7086 32.4153 13.4135 40.5 13.4135C48.5846 13.4135 56.8668 18.7086 65.3263 29.7837C56.8668 40.8589 48.5846 46.1539 40.5 46.1539ZM102.385 20.4675C97.9382 20.4675 94.5427 23.8275 94.5427 29.7975C94.5427 35.7675 97.9382 39.1575 102.385 39.1575C106.833 39.1575 110.228 35.7675 110.228 29.7975C110.228 23.8275 106.833 20.4675 102.385 20.4675ZM102.385 18.5475C108.545 18.5475 112.362 23.1675 112.362 29.7975C112.362 36.4275 108.545 41.0775 102.385 41.0775C96.2255 41.0775 92.4093 36.4275 92.4093 29.7975C92.4093 23.1675 96.2255 18.5475 102.385 18.5475ZM115.821 24.5475H117.684V27.2775C118.496 25.7475 120.028 24.2775 123.063 24.2775C126.879 24.2775 128.502 26.5575 128.502 30.5175V40.6875H126.639V31.0275C126.639 27.9975 125.828 25.9575 122.582 25.9575C119.788 25.9575 117.684 28.2975 117.684 31.7175V40.6875H115.821V24.5475ZM145.89 35.8575C145.079 39.2175 142.465 41.0775 138.889 41.0775C134.171 41.0775 131.256 37.6875 131.256 32.6775C131.256 27.4875 134.502 24.2775 138.829 24.2775C143.366 24.2775 146.281 28.1175 146.04 33.1575H133.179C133.27 37.0875 135.704 39.3675 139.009 39.3675C141.533 39.3675 143.306 38.1075 143.937 35.8575H145.89ZM143.997 31.4475C143.997 28.7175 142.044 25.9575 138.799 25.9575C135.794 25.9575 133.63 27.8475 133.24 31.4475H143.997ZM158.199 20.4675C153.752 20.4675 150.356 23.8275 150.356 29.7975C150.356 35.7675 153.752 39.1575 158.199 39.1575C162.646 39.1575 166.042 35.7675 166.042 29.7975C166.042 23.8275 162.646 20.4675 158.199 20.4675ZM158.199 18.5475C164.359 18.5475 168.175 23.1675 168.175 29.7975C168.175 36.4275 164.359 41.0775 158.199 41.0775C152.039 41.0775 148.223 36.4275 148.223 29.7975C148.223 23.1675 152.039 18.5475 158.199 18.5475ZM178.576 25.9575C176.142 25.9575 173.378 27.8775 173.378 32.6775C173.378 37.4775 176.142 39.3975 178.576 39.3975C181.581 39.3975 183.714 36.9675 183.714 32.6775C183.714 28.3875 181.581 25.9575 178.576 25.9575ZM178.967 24.2775C182.693 24.2775 185.728 27.3075 185.728 32.6775C185.728 38.0475 182.693 41.0775 178.967 41.0775C176.563 41.0775 174.67 39.9675 173.498 38.0175V45.9375H171.635V24.5475H173.498V27.3075C174.67 25.3875 176.563 24.2775 178.967 24.2775ZM187.025 24.5475H189.699V20.9175H191.592V24.5475H194.778V26.1675H191.592V36.4875C191.592 38.5575 191.652 39.0075 193.816 39.0075H194.778V40.6875H193.245C190.36 40.6875 189.699 40.0575 189.699 36.8475V26.1675H187.025V24.5475ZM197.986 40.6875V24.5475H199.849V40.6875H197.986ZM197.986 21.9075V18.9375H199.849V21.9075H197.986ZM203.092 32.6775C203.092 27.6675 205.796 24.2775 210.514 24.2775C214.21 24.2775 216.674 26.8575 217.155 29.7375H215.201C214.6 27.3075 212.707 25.9875 210.333 25.9875C207.569 25.9875 205.075 28.2075 205.075 32.6475C205.075 37.2375 207.569 39.3675 210.364 39.3675C213.128 39.3675 214.841 37.5975 215.322 35.5875H217.305C216.674 38.9175 213.939 41.0775 210.364 41.0775C205.796 41.0775 203.092 37.6275 203.092 32.6775ZM226.02 24.2475C229.505 24.2475 231.849 26.4075 232.24 28.9575H230.287C229.896 27.0375 228.123 25.8975 225.839 25.8975C224.066 25.8975 221.723 26.5875 221.723 28.5375C221.723 30.1275 222.955 30.9675 224.758 31.2975L227.041 31.7175C229.686 32.1975 232.63 33.0975 232.63 36.1575C232.63 39.3675 229.716 41.0775 226.2 41.0775C222.865 41.0775 219.98 39.4275 219.499 35.7375H221.452C221.783 38.2575 223.886 39.4275 226.35 39.4275C228.303 39.4275 230.737 38.6175 230.737 36.4575C230.737 34.5675 228.934 33.9075 226.741 33.4875L224.217 33.0075C221.903 32.5275 219.83 31.2375 219.83 28.6875C219.83 26.1375 222.384 24.2475 226.02 24.2475Z" fill="white"/>
</svg>
