<svg width="100" height="60" viewBox="0 0 100 60" fill="none" xmlns="http://www.w3.org/2000/svg">
<path d="M1.5 31.8551C1.56227 47.1963 14.1609 59.7686 29.6378 59.7686C45.1528 59.7686 57.7747 47.247 57.7747 31.8551V27.9145C57.7747 21.5767 62.9726 16.4199 69.3614 16.4199C75.7507 16.4199 80.9477 21.5767 80.9477 27.9145C80.9477 29.7281 82.4299 31.1987 84.2582 31.1987H94.1894C96.0187 31.1987 97.5 29.7281 97.5 27.9145C97.5 12.5226 84.8779 0 69.3624 0C53.8474 0 41.2244 12.5226 41.2244 27.9145V31.8551C41.2244 38.1939 36.0264 43.3488 29.6388 43.3488C23.2502 43.3488 18.0522 38.1939 18.0522 31.8551C18.0522 30.0416 16.5698 28.571 14.7418 28.571H4.81044C2.98235 28.5719 1.5 30.0416 1.5 31.8551Z" fill="white"/>
</svg>
