<svg width="603" height="602" viewBox="0 0 603 602" fill="none" xmlns="http://www.w3.org/2000/svg">
<path fill-rule="evenodd" clip-rule="evenodd" d="M6.49242 257.36C26.5631 192.397 111.03 176.136 162.396 131.268C196.906 101.124 218.44 59.2444 258.633 37.1166C301.052 13.7627 348.68 -3.90782 396.781 2.22798C445.196 8.40385 481.429 44.6872 522.572 70.7849C571.372 101.739 631.407 119.959 660.654 169.605C692.818 224.205 716.248 296.195 689.06 353.403C661.701 410.97 575.772 407.724 527.559 449.654C478.961 491.919 470.777 578.234 409.004 596.961C347.831 615.506 288.481 565.629 230.021 539.853C170.892 513.782 105.316 495.96 65.3338 445.431C23.6527 392.755 -13.2981 321.417 6.49242 257.36Z" stroke="url(#paint0_linear_82_192)" stroke-width="2"/>
<defs>
<linearGradient id="paint0_linear_82_192" x1="345.928" y1="601" x2="346.154" y2="-172.241" gradientUnits="userSpaceOnUse">
<stop stop-color="#FF3D00"/>
<stop offset="0.28125" stop-color="#FF7E07"/>
<stop offset="1" stop-color="#FFDD2B"/>
</linearGradient>
</defs>
</svg>
