<svg width="327" height="282" viewBox="0 0 327 282" fill="none" xmlns="http://www.w3.org/2000/svg">
<path fill-rule="evenodd" clip-rule="evenodd" d="M3.55005 120.635C12.8686 90.3186 52.0853 82.7303 75.9337 61.7919C91.9564 47.7244 101.954 28.1807 120.615 17.8544C140.31 6.95594 162.423 -1.29031 184.756 1.57306C207.234 4.45514 224.056 21.3874 243.159 33.5663C265.816 48.0116 293.689 56.514 307.268 79.6824C322.201 105.162 333.079 138.758 320.456 165.455C307.754 192.319 267.859 190.805 245.474 210.372C222.911 230.095 219.111 270.376 190.43 279.115C162.029 287.769 134.473 264.493 107.331 252.465C79.8785 240.298 49.4325 231.981 30.8692 208.401C11.5173 183.819 -5.6384 150.528 3.55005 120.635Z" stroke="url(#paint0_linear_87_572)" stroke-width="2"/>
<defs>
<linearGradient id="paint0_linear_87_572" x1="161.145" y1="281" x2="161.251" y2="-79.8457" gradientUnits="userSpaceOnUse">
<stop stop-color="#FF3D00"/>
<stop offset="0.28125" stop-color="#FF7E07"/>
<stop offset="1" stop-color="#FFDD2B"/>
</linearGradient>
</defs>
</svg>
