<svg width="189" height="70" viewBox="0 0 189 70" fill="none" xmlns="http://www.w3.org/2000/svg">
<mask id="mask0_82_184" style="mask-type:alpha" maskUnits="userSpaceOnUse" x="0" y="0" width="189" height="70">
<path fill-rule="evenodd" clip-rule="evenodd" d="M41.2064 0H50.7155L35.2191 30.2385H46.4892L66.5643 69.4111H57.0549L25.2464 39.1727H0L41.2064 0ZM107.321 19.6329C107.321 20.2833 107.192 20.891 106.934 21.4559C106.693 22.0207 106.358 22.517 105.928 22.9451C105.498 23.3559 104.991 23.6898 104.406 23.9463C103.838 24.1861 103.228 24.306 102.574 24.306C101.921 24.306 101.302 24.1861 100.717 23.9463C100.15 23.6898 99.6509 23.3559 99.221 22.9451C98.8083 22.517 98.4729 22.0207 98.2149 21.4559C97.9743 20.891 97.8539 20.2833 97.8539 19.6329C97.8539 18.9995 97.9743 18.4004 98.2149 17.8356C98.4729 17.2536 98.8083 16.7572 99.221 16.3464C99.6509 15.9184 100.15 15.5846 100.717 15.345C101.302 15.0883 101.921 14.9599 102.574 14.9599C103.228 14.9599 103.838 15.0883 104.406 15.345C104.991 15.5846 105.498 15.9184 105.928 16.3464C106.358 16.7572 106.693 17.2536 106.934 17.8356C107.192 18.4004 107.321 18.9995 107.321 19.6329ZM106.108 54.6033H99.0147V27.1044H106.108V54.6033ZM95.8933 54.6033H69.9948V17.7842H77.3981V47.2345H95.8933V54.6033ZM111.499 54.6033H118.542V38.8898C118.542 38.1708 118.679 37.4946 118.954 36.8613C119.23 36.211 119.608 35.646 120.089 35.1667C120.571 34.6874 121.138 34.3109 121.792 34.0371C122.445 33.7632 123.142 33.6263 123.881 33.6263C124.604 33.6263 125.283 33.7632 125.919 34.0371C126.555 34.3109 127.114 34.6874 127.596 35.1667C128.077 35.646 128.456 36.211 128.731 36.8613C129.006 37.4946 129.143 38.1708 129.143 38.8898V54.6033H136.185V38.8898C136.185 37.1952 135.859 35.6033 135.205 34.1141C134.569 32.6077 133.692 31.2983 132.574 30.1858C131.457 29.0559 130.15 28.1743 128.653 27.5411C127.157 26.8905 125.567 26.5654 123.881 26.5654C122.316 26.5654 120.812 26.8478 119.367 27.4127C117.94 27.9604 116.658 28.7479 115.524 29.7749L113.202 27.1044H111.499V54.6033ZM154.707 54.6033C153.004 54.6033 151.405 54.2868 149.909 53.6535C148.412 53.0029 147.097 52.1213 145.962 51.0088C144.844 49.8789 143.959 48.5695 143.305 47.0802C142.669 45.5912 142.351 43.9992 142.351 42.3047V34.1397H138.92V27.1558H142.351V16.1666H149.367V27.1558H160.046V34.1397H149.367V42.3047C149.367 43.0406 149.504 43.734 149.78 44.3844C150.055 45.0177 150.433 45.5739 150.915 46.0532C151.396 46.5325 151.964 46.9177 152.617 47.2087C153.271 47.4825 153.967 47.6195 154.707 47.6195H160.046V54.6033H154.707ZM182.488 52.8574C183.142 52.3952 183.752 51.9074 184.32 51.394L186.641 54.6033H188.344V27.1044H181.302V42.3047C181.302 43.0406 181.164 43.7596 180.889 44.4614C180.614 45.1461 180.235 45.7623 179.754 46.31C179.272 46.8578 178.705 47.3029 178.051 47.6453C177.415 47.9703 176.736 48.1331 176.013 48.1331C175.274 48.1331 174.578 48.0047 173.924 47.7479C173.288 47.4911 172.729 47.1146 172.247 46.6182C171.766 46.1217 171.379 45.5142 171.087 44.7952C170.811 44.0591 170.674 43.2289 170.674 42.3047V27.1044H163.658V42.3047C163.658 44.273 163.976 46.0532 164.612 47.6453C165.266 49.2201 166.151 50.5636 167.269 51.6764C168.404 52.7719 169.719 53.6191 171.216 54.2183C172.712 54.8174 174.311 55.1169 176.013 55.1169C176.787 55.1169 177.544 55.0141 178.283 54.8087C179.04 54.6206 179.771 54.3638 180.476 54.0385C181.181 53.6961 181.852 53.3024 182.488 52.8574Z" fill="url(#paint0_linear_82_184)"/>
</mask>
<g mask="url(#mask0_82_184)">
<rect width="67" height="70" fill="url(#paint1_linear_82_184)"/>
<rect x="67" width="122" height="70" fill="white"/>
</g>
<defs>
<linearGradient id="paint0_linear_82_184" x1="94.1718" y1="0" x2="94.1718" y2="69.4111" gradientUnits="userSpaceOnUse">
<stop stop-color="white"/>
<stop offset="1" stop-color="white"/>
</linearGradient>
<linearGradient id="paint1_linear_82_184" x1="6.95562e-08" y1="34.4928" x2="86.3452" y2="34.521" gradientUnits="userSpaceOnUse">
<stop stop-color="#FF3D00"/>
<stop offset="0.28125" stop-color="#FF7E07"/>
<stop offset="1" stop-color="#FFDD2B"/>
</linearGradient>
</defs>
</svg>
