<svg width="111" height="110" viewBox="0 0 111 110" fill="none" xmlns="http://www.w3.org/2000/svg">
<path d="M24.5625 41.25C21.1631 41.25 17.8401 40.242 15.0136 38.3534C12.1872 36.4648 9.98421 33.7805 8.68333 30.6399C7.38245 27.4993 7.04208 24.0434 7.70526 20.7094C8.36844 17.3753 10.0054 14.3128 12.4091 11.9091C14.8128 9.50539 17.8753 7.86844 21.2094 7.20526C24.5434 6.54208 27.9993 6.88245 31.1399 8.18333C34.2805 9.48421 36.9648 11.6872 38.8534 14.5136C40.742 17.3401 41.75 20.6631 41.75 24.0625H34.875C34.875 22.0229 34.2702 20.0291 33.137 18.3332C32.0039 16.6373 30.3933 15.3155 28.5089 14.535C26.6246 13.7545 24.5511 13.5502 22.5506 13.9482C20.5502 14.3461 18.7127 15.3282 17.2705 16.7705C15.8282 18.2127 14.8461 20.0502 14.4482 22.0506C14.0502 24.0511 14.2545 26.1246 15.035 28.0089C15.8155 29.8933 17.1373 31.5039 18.8332 32.637C20.5291 33.7702 22.5229 34.375 24.5625 34.375V41.25ZM86.4375 41.25V34.375C88.4771 34.375 90.4709 33.7702 92.1668 32.637C93.8627 31.5039 95.1845 29.8933 95.965 28.0089C96.7455 26.1246 96.9498 24.0511 96.5519 22.0506C96.1539 20.0502 95.1718 18.2127 93.7295 16.7705C92.2873 15.3282 90.4498 14.3461 88.4494 13.9482C86.449 13.5502 84.3755 13.7545 82.4911 14.535C80.6067 15.3155 78.9961 16.6373 77.863 18.3332C76.7298 20.0291 76.125 22.0229 76.125 24.0625H69.25C69.25 20.6631 70.258 17.3401 72.1466 14.5136C74.0352 11.6872 76.7195 9.48421 79.8601 8.18333C83.0007 6.88245 86.4566 6.54208 89.7906 7.20526C93.1247 7.86844 96.1872 9.50539 98.5909 11.9091C100.995 14.3128 102.632 17.3753 103.295 20.7094C103.958 24.0434 103.618 27.4993 102.317 30.6399C101.016 33.7805 98.8128 36.4648 95.9864 38.3534C93.1599 40.242 89.8369 41.25 86.4375 41.25ZM24.5625 103.125C20.0041 103.125 15.6324 101.314 12.4091 98.0909C9.18583 94.8676 7.37501 90.4959 7.37501 85.9375C7.37501 81.3791 9.18583 77.0074 12.4091 73.7841C15.6324 70.5608 20.0041 68.75 24.5625 68.75V75.625C22.5229 75.625 20.5291 76.2298 18.8332 77.363C17.1373 78.4961 15.8155 80.1067 15.035 81.9911C14.2545 83.8755 14.0502 85.949 14.4482 87.9494C14.8461 89.9498 15.8282 91.7873 17.2705 93.2295C18.7127 94.6718 20.5502 95.6539 22.5506 96.0519C24.5511 96.4498 26.6246 96.2455 28.5089 95.465C30.3933 94.6845 32.0039 93.3627 33.137 91.6668C34.2702 89.9709 34.875 87.9771 34.875 85.9375H41.75C41.7455 90.4945 39.9332 94.8636 36.7109 98.0859C33.4886 101.308 29.1195 103.12 24.5625 103.125ZM86.4375 103.125C81.8805 103.12 77.5114 101.308 74.2891 98.0859C71.0668 94.8636 69.2546 90.4945 69.25 85.9375H76.125C76.125 87.9771 76.7298 89.9709 77.863 91.6668C78.9961 93.3627 80.6067 94.6845 82.4911 95.465C84.3755 96.2455 86.449 96.4498 88.4494 96.0519C90.4498 95.6539 92.2873 94.6718 93.7295 93.2295C95.1718 91.7873 96.1539 89.9498 96.5519 87.9494C96.9498 85.949 96.7455 83.8755 95.965 81.9911C95.1845 80.1067 93.8627 78.4961 92.1668 77.363C90.4709 76.2298 88.4771 75.625 86.4375 75.625V68.75C90.9959 68.75 95.3676 70.5608 98.5909 73.7841C101.814 77.0074 103.625 81.3791 103.625 85.9375C103.625 90.4959 101.814 94.8676 98.5909 98.0909C95.3676 101.314 90.9959 103.125 86.4375 103.125Z" fill="#FF6B00"/>
<path d="M69.25 63.8891V46.1104L88.8678 26.4926C89.1961 26.1755 89.458 25.7962 89.6382 25.3768C89.8183 24.9574 89.9131 24.5063 89.9171 24.0499C89.9211 23.5935 89.8341 23.1408 89.6613 22.7184C89.4884 22.2959 89.2332 21.9121 88.9104 21.5893C88.5877 21.2666 88.2039 21.0113 87.7814 20.8385C87.3589 20.6657 86.9063 20.5787 86.4499 20.5826C85.9934 20.5866 85.5424 20.6814 85.123 20.8616C84.7036 21.0418 84.3243 21.3036 84.0072 21.6319L68.5384 37.1007C67.6727 34.3192 65.9403 31.8874 63.5942 30.1606C61.2481 28.4337 58.4114 27.5022 55.4983 27.5022C52.5852 27.5022 49.7484 28.4337 47.4023 30.1606C45.0563 31.8874 43.3239 34.3192 42.4581 37.1007L26.9928 21.6319C26.3482 20.9875 25.474 20.6255 24.5625 20.6255C23.651 20.6255 22.7768 20.9875 22.1322 21.6319C21.4878 22.2766 21.1257 23.1508 21.1257 24.0623C21.1257 24.9738 21.4878 25.8479 22.1322 26.4926L41.75 46.1104V63.8891L22.1322 83.5069C21.4878 84.1516 21.1257 85.0258 21.1257 85.9373C21.1257 86.8488 21.4878 87.723 22.1322 88.3676C22.7768 89.012 23.651 89.374 24.5625 89.374C25.474 89.374 26.3482 89.012 26.9928 88.3676L42.4616 72.8988C43.3273 75.6803 45.0597 78.1121 47.4058 79.839C49.7519 81.5658 52.5886 82.4973 55.5017 82.4973C58.4148 82.4973 61.2516 81.5658 63.5976 79.839C65.9437 78.1121 67.6761 75.6803 68.5419 72.8988L84.0106 88.3676C84.6589 88.9937 85.5273 89.3402 86.4286 89.3324C87.3299 89.3246 88.192 88.963 88.8294 88.3257C89.4667 87.6884 89.8282 86.8262 89.8361 85.9249C89.8439 85.0236 89.4974 84.1553 88.8712 83.5069L69.25 63.8891ZM62.375 68.7498C62.375 70.5731 61.6507 72.3218 60.3614 73.6111C59.072 74.9004 57.3234 75.6248 55.5 75.6248C53.6766 75.6248 51.928 74.9004 50.6386 73.6111C49.3493 72.3218 48.625 70.5731 48.625 68.7498V41.2498C48.625 39.4264 49.3493 37.6777 50.6386 36.3884C51.928 35.0991 53.6766 34.3748 55.5 34.3748C57.3234 34.3748 59.072 35.0991 60.3614 36.3884C61.6507 37.6777 62.375 39.4264 62.375 41.2498V68.7498Z" fill="#FF6B00"/>
</svg>
