<svg width="97" height="98" viewBox="0 0 97 98" fill="none" xmlns="http://www.w3.org/2000/svg">
<path d="M41.625 24.9375C41.625 24.0258 41.9872 23.1515 42.6318 22.5068C43.2765 21.8622 44.1508 21.5 45.0625 21.5C45.9742 21.5 46.8485 21.8622 47.4932 22.5068C48.1378 23.1515 48.5 24.0258 48.5 24.9375V49H62.25C63.1617 49 64.036 49.3622 64.6807 50.0068C65.3253 50.6515 65.6875 51.5258 65.6875 52.4375C65.6875 53.3492 65.3253 54.2235 64.6807 54.8682C64.036 55.5128 63.1617 55.875 62.25 55.875H45.0625C44.1508 55.875 43.2765 55.5128 42.6318 54.8682C41.9872 54.2235 41.625 53.3492 41.625 52.4375V24.9375ZM48.5 97.125C75.0788 97.125 96.625 75.5788 96.625 49C96.625 22.4213 75.0788 0.875 48.5 0.875C21.9213 0.875 0.375 22.4213 0.375 49C0.375 75.5788 21.9213 97.125 48.5 97.125ZM48.5 90.25C25.7197 90.25 7.25 71.7803 7.25 49C7.25 26.2197 25.7197 7.75 48.5 7.75C71.2803 7.75 89.75 26.2197 89.75 49C89.75 71.7803 71.2803 90.25 48.5 90.25Z" fill="#FFDD2B"/>
</svg>
