<svg width="96" height="95" viewBox="0 0 96 95" fill="none" xmlns="http://www.w3.org/2000/svg">
<path d="M0.5 47.5C0.5 34.9022 5.50445 22.8204 14.4124 13.9124C23.3204 5.00445 35.4022 0 48 0C60.5978 0 72.6796 5.00445 81.5876 13.9124C90.4956 22.8204 95.5 34.9022 95.5 47.5C95.5 60.0978 90.4956 72.1796 81.5876 81.0876C72.6796 89.9956 60.5978 95 48 95C35.4022 95 23.3204 89.9956 14.4124 81.0876C5.50445 72.1796 0.5 60.0978 0.5 47.5ZM48 5.9375C47.4953 5.9375 46.9906 5.94938 46.4859 5.96719C47.1866 7.28531 47.9881 8.95969 48.7006 10.8538C50.3631 15.2831 51.8297 21.6422 49.2053 27.2294C46.8066 32.3356 42.6919 33.6656 39.5153 34.485L38.9394 34.6334C35.935 35.4053 34.4566 35.7853 33.4175 37.3647C32.4081 38.8906 32.6516 40.7728 33.6372 43.9731L33.8628 44.7094C34.2606 45.9622 34.7178 47.4228 34.9553 48.7944C35.2522 50.4925 35.3116 52.5706 34.2844 54.5537C33.2156 56.5903 31.8263 57.9619 30.1875 58.8525C28.7954 59.5573 27.297 60.0287 25.7522 60.2478L25.2297 60.3369C22.8131 60.7644 21.4 61.0078 20.0819 62.4209C19.0309 63.5491 18.4312 65.4372 18.0869 68.0081C17.9444 69.065 17.8612 70.1159 17.7722 71.1787L17.7306 71.7428C17.6552 72.9494 17.4985 74.1495 17.2616 75.335L17.2319 75.4538C21.1244 79.7466 25.8737 83.1756 31.1734 85.5197C36.473 87.8637 42.2052 89.0706 48 89.0625C56.0156 89.0625 63.5088 86.7884 69.8619 82.8578C69.2829 82.2822 68.7377 81.6736 68.2291 81.035C66.62 79.0163 64.6131 75.6378 65.3078 71.7131C65.6403 69.8547 66.6497 68.2634 67.665 66.9987C68.7041 65.7163 69.9569 64.5228 71.085 63.4838L71.845 62.7891C72.7119 61.9994 73.4659 61.3047 74.1131 60.6338C74.9859 59.7194 75.2472 59.2266 75.3006 59.0722C75.7044 57.7303 75.2234 56.6734 74.5525 56.1509C73.9944 55.7175 72.8009 55.3078 70.9306 56.4953C70.3063 56.8981 69.6666 57.2764 69.0128 57.6294C68.3911 57.9766 67.7174 58.2212 67.0178 58.3538C66.4345 58.4586 65.8343 58.4175 65.2708 58.2342C64.7072 58.0508 64.1977 57.7308 63.7878 57.3028C63.2289 56.6776 62.862 55.9046 62.7309 55.0763C62.6421 54.5336 62.5827 53.9866 62.5528 53.4375L62.5231 53.0456C62.4875 52.6063 62.4578 52.155 62.4044 51.6325C62.2572 49.979 61.9733 48.3406 61.5553 46.7341C60.8013 43.8188 58.9428 41.4616 57.0191 39.0153L56.1759 37.9406C55.2259 36.7175 54.0206 35.1025 53.5872 33.3687C53.2978 32.2974 53.3476 31.1628 53.7297 30.1209C54.1572 28.9928 54.935 28.1259 55.8197 27.4609C58.3609 25.5609 62.5172 21.4463 66.1688 17.6522C67.9678 15.7878 69.5888 14.0481 70.7703 12.7716L70.8 12.7359C64.0296 8.28628 56.1017 5.92237 48 5.9375ZM75.5381 16.3697L75.1284 16.8091C73.935 18.1034 72.2784 19.8728 70.4497 21.7728C66.8753 25.4897 62.4222 29.925 59.4356 32.1813C59.6137 32.5731 60.0294 33.2262 60.8725 34.3128L61.6087 35.2509C63.485 37.6081 66.2044 41.0222 67.3028 45.2437C67.9144 47.5891 68.1756 49.5484 68.3181 51.0863L68.3241 51.1456C71.8153 49.1863 75.5084 49.3881 78.1803 51.4603C80.9056 53.5622 82.0575 57.2256 80.9828 60.7941C80.5019 62.3853 79.3619 63.7331 78.4059 64.7366C77.5521 65.6075 76.6689 66.4491 75.7578 67.26C75.5396 67.4574 75.3219 67.6553 75.1047 67.8538C73.9884 68.8869 73.0266 69.825 72.2903 70.7334C71.5362 71.6656 71.2334 72.3247 71.1562 72.7641C70.9187 74.1119 71.5837 75.715 72.8781 77.3478C73.4778 78.1078 74.1191 78.7372 74.6059 79.1884L74.7544 79.3131C79.3971 75.4157 83.1291 70.548 85.6876 65.0525C88.246 59.5571 89.5687 53.5677 89.5625 47.5059C89.5698 41.6178 88.3229 35.7956 85.9047 30.4269C83.4866 25.0582 79.9526 20.2662 75.5381 16.3697ZM40.8631 8.03938C40.6101 7.5842 40.3468 7.13482 40.0734 6.69156C33.5625 7.95768 27.449 10.7631 22.2432 14.8734C17.0375 18.9838 12.8906 24.28 10.1488 30.3196C7.40708 36.3593 6.14997 42.9673 6.4825 49.5918C6.81502 56.2164 8.72752 62.6652 12.0603 68.4C12.1023 68.0075 12.1498 67.6156 12.2028 67.2244C12.5709 64.4516 13.3487 60.9366 15.7416 58.3716C18.4847 55.4325 21.8334 54.8803 24.0778 54.5122L24.7191 54.3994C25.9244 54.1856 26.7141 53.9838 27.3494 53.6394C28.0825 53.2176 28.6642 52.5757 29.0119 51.8047C29.19 51.4841 29.2969 50.9319 29.1069 49.8097C28.8852 48.7317 28.5956 47.6687 28.24 46.6272L27.9609 45.7188C27.0525 42.7678 25.7403 38.2256 28.4597 34.0931C30.8347 30.4891 34.6347 29.5688 37.2294 28.9334L38.0309 28.7375C40.8037 28.025 42.6088 27.3006 43.8319 24.7C45.3816 21.3987 44.6809 17.0287 43.1431 12.9437C42.5019 11.2563 41.7399 9.61731 40.8631 8.03938Z" fill="#FFDD2B"/>
</svg>
