<svg width="160" height="50" viewBox="0 0 160 50" fill="none" xmlns="http://www.w3.org/2000/svg">
<path d="M0 6.26667C0 2.80568 2.8314 0 6.32411 0H153.676C157.169 0 160 2.80568 160 6.26667V40.7333C160 44.1944 157.169 47 153.676 47H6.32411C2.8314 47 0 44.1944 0 40.7333V6.26667Z" fill="#272727"/>
<path fill-rule="evenodd" clip-rule="evenodd" d="M0 40.7333V6.26667C0 2.80568 2.8314 0 6.32411 0H153.676C157.169 0 160 2.80568 160 6.26667V40.7333C160 44.1944 157.169 47 153.676 47H6.32411C2.8314 47 0 44.1944 0 40.7333ZM0.948617 40.7333V6.26667C0.948617 3.32484 3.35532 0.94 6.32411 0.94H153.676C156.645 0.94 159.051 3.32484 159.051 6.26667V40.7333C159.051 43.6752 156.645 46.06 153.676 46.06H6.32411C3.35532 46.06 0.948617 43.6752 0.948617 40.7333Z" fill="white"/>
<path d="M36.1565 24.4573C36.1401 21.7026 37.3995 19.6265 39.9431 18.0957C38.5205 16.0762 36.3684 14.9655 33.5314 14.7514C30.8452 14.5414 27.9064 16.3024 26.8303 16.3024C25.6931 16.3024 23.0925 14.8241 21.0463 14.8241C16.8235 14.8887 12.3357 18.1604 12.3357 24.8167C12.3357 26.7838 12.6985 28.8154 13.424 30.9076C14.3941 33.6623 17.8914 40.4115 21.5395 40.3025C23.4471 40.258 24.7963 38.9614 27.2786 38.9614C29.6876 38.9614 30.9349 40.3025 33.0628 40.3025C36.7434 40.2499 39.9064 34.1148 40.8275 31.3518C35.8915 29.0456 36.1565 24.5986 36.1565 24.4573ZM31.8723 12.1381C33.939 9.7066 33.7515 7.49321 33.6904 6.6975C31.8643 6.80253 29.7529 7.9294 28.5504 9.31481C27.2257 10.8012 26.4471 12.639 26.6143 14.711C28.5871 14.8605 30.3887 13.8547 31.8723 12.1381Z" fill="white"/>
<path d="M50.0889 14.0853H51.1017C52.08 14.0853 52.6533 14.5211 52.6533 15.2554V15.2652C52.6533 15.9457 52.0503 16.3913 51.1314 16.3913C50.1926 16.3913 49.5949 16.0241 49.5159 15.3729L49.5108 15.3338H48.4288L48.4338 15.3925C48.5078 16.5577 49.5554 17.3508 51.1314 17.3508C52.658 17.3508 53.7847 16.4794 53.7847 15.3142V15.3044C53.7847 14.3546 53.1965 13.6839 52.2432 13.5664V13.5272C53.0337 13.3461 53.5671 12.69 53.5671 11.9067V11.8969C53.5671 10.8051 52.5888 10.0511 51.156 10.0511C49.6639 10.0511 48.6906 10.7806 48.6166 11.9752L48.6115 12.0438H49.674L49.6787 11.9752C49.7628 11.3681 50.2817 11.0107 51.1216 11.0107C51.9763 11.0107 52.4705 11.3877 52.4705 12.0144V12.0242C52.4705 12.6998 51.9219 13.1649 51.0723 13.1649H50.0889V14.0853Z" fill="white"/>
<path d="M57.3632 17.3264C58.0547 17.3264 58.6527 16.9739 58.954 16.4206H58.9787V17.2333H60.0459V13.6839C60.0459 12.6508 59.2405 11.985 57.9709 11.985C56.6912 11.985 55.9156 12.6655 55.8413 13.5517L55.8365 13.6055H56.8443L56.8541 13.5614C56.9432 13.1502 57.3236 12.8614 57.9412 12.8614C58.6033 12.8614 58.9787 13.2041 58.9787 13.772V14.1587L57.5608 14.242C56.3304 14.3154 55.6288 14.8637 55.6288 15.7597V15.7695C55.6288 16.6948 56.3254 17.3264 57.3632 17.3264ZM56.7061 15.745V15.7352C56.7061 15.2995 57.0618 15.0204 57.704 14.9812L58.9787 14.9029V15.3044C58.9787 15.9751 58.4057 16.4794 57.6547 16.4794C57.0814 16.4794 56.7061 16.1954 56.7061 15.745Z" fill="white"/>
<path d="M65.729 12.925V12.0829H62.2855V17.2333H63.3527V12.925H65.729Z" fill="white"/>
<path d="M67.7363 18.9469H68.8035V16.3668H68.8281C69.1346 16.9641 69.7325 17.3361 70.4686 17.3361C71.773 17.3361 72.6277 16.3031 72.6277 14.663V14.6581C72.6277 13.0131 71.7777 11.985 70.4538 11.985C69.7126 11.985 69.1396 12.3571 68.8281 12.9691H68.8035V12.0829H67.7363V18.9469ZM70.1771 16.4255C69.3717 16.4255 68.7987 15.7303 68.7987 14.663V14.6581C68.7987 13.5859 69.3666 12.8907 70.1771 12.8907C71.0169 12.8907 71.5406 13.5614 71.5406 14.6581V14.663C71.5406 15.7499 71.0169 16.4255 70.1771 16.4255Z" fill="white"/>
<path d="M75.1339 18.9518C76.1518 18.9518 76.6953 18.5405 77.0808 17.4732L79.0175 12.0829H77.8909L76.5815 16.2738H76.547L75.2376 12.0829H74.0816L75.9741 17.2382L75.8849 17.483C75.7072 17.9824 75.4305 18.1146 74.9265 18.1146C74.7832 18.1146 74.6596 18.095 74.5758 18.0754V18.9028C74.7042 18.9273 74.9265 18.9518 75.1339 18.9518Z" fill="white"/>
<path d="M82.6849 17.3361C83.9595 17.3361 84.8044 16.6948 84.8044 15.7352V15.7254C84.8044 15.1232 84.4288 14.712 83.742 14.5749V14.5357C84.3004 14.4084 84.6612 13.9727 84.6612 13.4195V13.4097C84.6612 12.5284 83.9298 11.985 82.7342 11.985C81.5633 11.985 80.7975 12.5333 80.6738 13.4489L80.6691 13.488H81.6866L81.6917 13.4537C81.7708 13.0621 82.1609 12.8222 82.7194 12.8222C83.2825 12.8222 83.6187 13.0817 83.6187 13.5223V13.5321C83.6187 13.9923 83.2974 14.2273 82.67 14.2273H81.9238V14.9959H82.6748C83.3964 14.9959 83.742 15.2309 83.742 15.7254V15.7352C83.742 16.2052 83.3369 16.4941 82.6798 16.4941C82.092 16.4941 81.7066 16.2689 81.588 15.8527L81.5731 15.8038H80.5255L80.5306 15.8478C80.6343 16.7584 81.4694 17.3361 82.6849 17.3361Z" fill="white"/>
<path d="M86.8563 17.2333H87.9086L90.2947 13.6153H90.3393V17.2333H91.4014V12.0829H90.3491L87.963 15.6862H87.9134V12.0829H86.8563V17.2333Z" fill="white"/>
<path d="M97.6133 12.0829H93.2904V12.925H94.9157V17.2333H95.988V12.925H97.6133V12.0829Z" fill="white"/>
<path d="M101.627 17.3361C102.887 17.3361 103.692 16.592 103.855 15.7744L103.87 15.7205H102.852L102.837 15.7597C102.704 16.1464 102.284 16.4696 101.652 16.4696C100.802 16.4696 100.263 15.9017 100.243 14.9274H103.924V14.57C103.924 13.0229 103.03 11.985 101.572 11.985C100.115 11.985 99.176 13.0621 99.176 14.6728V14.6777C99.176 16.3031 100.1 17.3361 101.627 17.3361ZM101.577 12.8516C102.274 12.8516 102.783 13.2873 102.867 14.1783H100.258C100.357 13.3167 100.886 12.8516 101.577 12.8516Z" fill="white"/>
<path d="M109.124 17.2333H111.516C112.642 17.2333 113.344 16.6556 113.344 15.7548V15.745C113.344 15.1134 112.899 14.6532 112.227 14.5651V14.5259C112.726 14.4329 113.112 13.9482 113.112 13.4146V13.4048C113.112 12.5872 112.499 12.0829 111.486 12.0829H109.124V17.2333ZM110.182 14.2077V12.8663H111.264C111.778 12.8663 112.054 13.0964 112.054 13.5223V13.5321C112.054 13.9874 111.758 14.2077 111.155 14.2077H110.182ZM110.182 16.45V14.9764H111.195C111.896 14.9764 112.247 15.2064 112.247 15.7009V15.7107C112.247 16.2003 111.921 16.45 111.318 16.45H110.182Z" fill="white"/>
<path d="M58.4202 34.0117H56.3266L55.1798 30.4244H51.194L50.1015 34.0117H48.0632L52.0123 21.7988H54.4515L58.4202 34.0117ZM54.8341 28.9193L53.797 25.7303C53.6876 25.4045 53.4817 24.6373 53.1785 23.4296H53.1418C53.021 23.949 52.8266 24.7162 52.5591 25.7303L51.5406 28.9193H54.8341Z" fill="white"/>
<path d="M68.5761 29.5003C68.5761 30.998 68.1698 32.1818 67.3565 33.051C66.6283 33.8246 65.724 34.211 64.6444 34.211C63.4792 34.211 62.6422 33.7943 62.1325 32.9611H62.0955V37.6H60.1303V28.1045C60.1303 27.1629 60.1053 26.1965 60.0576 25.2054H61.7859L61.8957 26.6012H61.9323C62.5878 25.5495 63.5826 25.0246 64.9173 25.0246C65.9608 25.0246 66.8319 25.4348 67.5289 26.2562C68.2277 27.0785 68.5761 28.1595 68.5761 29.5003ZM66.5739 29.5719C66.5739 28.7147 66.3804 28.0081 65.9915 27.4519C65.5665 26.872 64.9957 26.582 64.2805 26.582C63.7954 26.582 63.3549 26.7435 62.9613 27.0619C62.5666 27.3831 62.3086 27.8025 62.1878 28.3219C62.1271 28.5642 62.0964 28.7625 62.0964 28.9185V30.3868C62.0964 31.0274 62.2938 31.568 62.6884 32.0092C63.083 32.4507 63.5956 32.671 64.2261 32.671C64.9663 32.671 65.5425 32.3864 65.9545 31.8193C66.3674 31.2513 66.5739 30.5024 66.5739 29.5719Z" fill="white"/>
<path d="M78.751 29.5003C78.751 30.998 78.3444 32.1818 77.5304 33.051C76.8032 33.8246 75.8988 34.211 74.8193 34.211C73.6541 34.211 72.8171 33.7943 72.3083 32.9611H72.2713V37.6H70.3061V28.1045C70.3061 27.1629 70.2811 26.1965 70.233 25.2054H71.9617L72.0712 26.6012H72.1081C72.7627 25.5495 73.7575 25.0246 75.0931 25.0246C76.1357 25.0246 77.0068 25.4348 77.7056 26.2562C78.4016 27.0785 78.751 28.1595 78.751 29.5003ZM76.7488 29.5719C76.7488 28.7147 76.5543 28.0081 76.1654 27.4519C75.7404 26.872 75.1715 26.582 74.4553 26.582C73.9693 26.582 73.5298 26.7435 73.1352 27.0619C72.7406 27.3831 72.4835 27.8025 72.3627 28.3219C72.3026 28.5642 72.2713 28.7625 72.2713 28.9185V30.3868C72.2713 31.0274 72.4686 31.568 72.8613 32.0092C73.256 32.4497 73.7685 32.671 74.401 32.671C75.1412 32.671 75.7173 32.3864 76.1293 31.8193C76.5423 31.2513 76.7488 30.5024 76.7488 29.5719Z" fill="white"/>
<path d="M90.1268 30.5869C90.1268 31.6257 89.7644 32.471 89.0371 33.1234C88.2381 33.8366 87.1254 34.1925 85.6955 34.1925C84.3753 34.1925 83.317 33.9393 82.516 33.4317L82.9714 31.8011C83.8343 32.3206 84.781 32.581 85.8125 32.581C86.5527 32.581 87.1288 32.414 87.5428 32.0819C87.9548 31.7498 88.1606 31.3037 88.1606 30.7476C88.1606 30.252 87.9908 29.8344 87.6506 29.4958C87.3122 29.1571 86.7472 28.8424 85.9583 28.5515C83.8103 27.754 82.7374 26.5857 82.7374 25.0495C82.7374 24.0455 83.1134 23.2223 83.8666 22.5817C84.6169 21.9403 85.618 21.62 86.8699 21.62C87.9864 21.62 88.9135 21.8136 89.6538 22.2L89.1627 23.795C88.4711 23.4205 87.6895 23.2333 86.8145 23.2333C86.1233 23.2333 85.5829 23.4031 85.1959 23.7408C84.8686 24.0428 84.7045 24.4108 84.7045 24.8467C84.7045 25.3294 84.8917 25.7286 85.2677 26.0424C85.5949 26.3324 86.1897 26.6463 87.0523 26.9849C88.1078 27.408 88.8832 27.9026 89.3818 28.4698C89.8789 29.0351 90.1268 29.7427 90.1268 30.5869Z" fill="white"/>
<path d="M96.6245 26.6739H94.4582V30.9495C94.4582 32.0371 94.8398 32.5804 95.6051 32.5804C95.9564 32.5804 96.2476 32.55 96.4781 32.4895L96.5325 33.9754C96.1451 34.1192 95.6354 34.1919 95.004 34.1919C94.2277 34.1919 93.6212 33.9559 93.1832 33.4853C92.7472 33.0134 92.5281 32.2223 92.5281 31.1111V26.6721H91.2373V25.2038H92.5281V23.5913L94.4582 23.0114V25.2038H96.6245V26.6739Z" fill="white"/>
<path d="M106.399 29.5361C106.399 30.8897 106.01 32.001 105.234 32.8702C104.42 33.7648 103.339 34.211 101.993 34.211C100.695 34.211 99.6613 33.7823 98.8908 32.9251C98.1198 32.0681 97.7347 30.9861 97.7347 29.682C97.7347 28.3174 98.1309 27.1996 98.9265 26.3305C99.7202 25.4605 100.791 25.0255 102.138 25.0255C103.436 25.0255 104.481 25.4541 105.269 26.3122C106.023 27.1445 106.399 28.2192 106.399 29.5361ZM104.36 29.5994C104.36 28.7872 104.186 28.0907 103.833 27.5098C103.421 26.8068 102.832 26.4562 102.068 26.4562C101.278 26.4562 100.678 26.8077 100.266 27.5098C99.913 28.0916 99.7388 28.7992 99.7388 29.6361C99.7388 30.4483 99.913 31.1448 100.266 31.7247C100.691 32.4278 101.285 32.7784 102.051 32.7784C102.801 32.7784 103.39 32.4206 103.815 31.7065C104.177 31.1145 104.36 30.4107 104.36 29.5994Z" fill="white"/>
<path d="M112.787 26.9261C112.593 26.8903 112.385 26.872 112.168 26.872C111.476 26.872 110.942 27.1317 110.566 27.652C110.238 28.1109 110.074 28.6909 110.074 29.3911V34.0117H108.11L108.128 27.9787C108.128 26.9637 108.103 26.0396 108.055 25.2063H109.766L109.838 26.8912H109.893C110.1 26.3122 110.428 25.846 110.876 25.4963C111.313 25.1815 111.786 25.0246 112.296 25.0246C112.478 25.0246 112.642 25.0375 112.787 25.0604V26.9261Z" fill="white"/>
<path d="M121.577 29.192C121.577 29.5426 121.554 29.8381 121.505 30.0794H115.609C115.632 30.9494 115.917 31.6147 116.464 32.0737C116.961 32.4839 117.603 32.6894 118.393 32.6894C119.266 32.6894 120.062 32.5509 120.778 32.2727L121.086 33.631C120.249 33.9945 119.261 34.1753 118.121 34.1753C116.749 34.1753 115.672 33.7733 114.889 32.9702C114.107 32.1671 113.715 31.0889 113.715 29.7362C113.715 28.4083 114.079 27.3024 114.809 26.4205C115.572 25.479 116.603 25.0082 117.901 25.0082C119.176 25.0082 120.141 25.479 120.797 26.4205C121.316 27.1684 121.577 28.0935 121.577 29.192ZM119.703 28.6845C119.715 28.1045 119.587 27.6034 119.321 27.1804C118.981 26.6362 118.458 26.3645 117.755 26.3645C117.112 26.3645 116.589 26.6298 116.19 27.162C115.863 27.5851 115.669 28.0926 115.609 28.6836L119.703 28.6845Z" fill="white"/>
</svg>
