<svg width="160" height="50" viewBox="0 0 160 50" fill="none" xmlns="http://www.w3.org/2000/svg">
<path d="M0 6.26667C0 2.80568 2.8314 0 6.32411 0H153.676C157.169 0 160 2.80568 160 6.26667V40.7333C160 44.1944 157.169 47 153.676 47H6.32411C2.8314 47 0 44.1944 0 40.7333V6.26667Z" fill="#272727"/>
<path fill-rule="evenodd" clip-rule="evenodd" d="M0 40.7333V6.26667C0 2.80568 2.8314 0 6.32411 0H153.676C157.169 0 160 2.80568 160 6.26667V40.7333C160 44.1944 157.169 47 153.676 47H6.32411C2.8314 47 0 44.1944 0 40.7333ZM0.948617 40.7333V6.26667C0.948617 3.32484 3.35532 0.94 6.32411 0.94H153.676C156.645 0.94 159.051 3.32484 159.051 6.26667V40.7333C159.051 43.6752 156.645 46.06 153.676 46.06H6.32411C3.35532 46.06 0.948617 43.6752 0.948617 40.7333Z" fill="white"/>
<path d="M81.0707 25.5334C78.2232 25.5334 75.8707 27.7368 75.8707 30.7579C75.8707 33.7545 78.1986 35.9826 81.0707 35.9826C83.9428 35.9826 86.2703 33.7789 86.2703 30.7579C86.2703 27.7368 83.9428 25.5334 81.0707 25.5334ZM81.0707 33.9036C79.5102 33.9036 78.1492 32.5907 78.1492 30.7346C78.1492 28.8527 79.5111 27.5657 81.0707 27.5657C82.6299 27.5657 83.9918 28.8527 83.9918 30.7346C83.9918 32.5907 82.6299 33.9036 81.0707 33.9036ZM69.7546 25.5334C66.8825 25.5334 64.5546 27.7368 64.5546 30.7579C64.5546 33.7545 66.8825 35.9826 69.7546 35.9826C72.6267 35.9826 74.9546 33.7789 74.9546 30.7579C74.9546 27.7368 72.627 25.5334 69.7546 25.5334ZM69.7546 33.9036C68.1942 33.9036 66.8335 32.5907 66.8335 30.7346C66.8335 28.8527 68.1954 27.5657 69.7546 27.5657C71.3151 27.5657 72.676 28.8527 72.676 30.7346C72.676 32.5907 71.3382 33.9036 69.7546 33.9036ZM56.3092 27.143V29.3465H61.5583C61.409 30.5844 60.9894 31.5007 60.37 32.1201C59.6025 32.8875 58.4139 33.7297 56.3092 33.7297C53.065 33.7297 50.5651 31.1052 50.5651 27.8612C50.5651 24.6173 53.0662 21.9431 56.3092 21.9431C58.0667 21.9431 59.3303 22.6367 60.2713 23.5284L61.8305 21.9678C60.5176 20.7055 58.7602 19.74 56.3092 19.74C51.8764 19.74 48.1619 23.3793 48.1619 27.8119C48.1619 32.2448 51.8764 35.8842 56.3092 35.8842C58.7108 35.8842 60.4942 35.0921 61.9301 33.6056C63.391 32.1449 63.8365 30.0891 63.8365 28.4303C63.8365 27.9106 63.7875 27.4399 63.7126 27.0435L56.3092 27.143ZM111.329 28.8514C110.908 27.6875 109.571 25.5334 106.896 25.5334C104.221 25.5334 102.018 27.6384 102.018 30.7579C102.018 33.6793 104.221 35.9826 107.144 35.9826C109.521 35.9826 110.883 34.5218 111.452 33.6793L109.695 32.4908C109.099 33.3581 108.308 33.9268 107.144 33.9268C105.98 33.9268 105.163 33.407 104.642 32.342L111.551 29.4452L111.329 28.8514ZM104.296 30.6102C104.247 28.6039 105.857 27.5643 106.994 27.5643C107.911 27.5643 108.654 28.0101 108.926 28.679L104.296 30.6102ZM98.6751 35.6363H100.954V20.3335H98.6751V35.6363ZM94.9619 26.6973H94.8879C94.3681 26.0778 93.4027 25.5334 92.1638 25.5334C89.5636 25.5334 87.2114 27.8366 87.2114 30.7579C87.2114 33.6793 89.5883 35.9581 92.1638 35.9581C93.4014 35.9581 94.3671 35.4132 94.8879 34.7693H94.9619V35.5119C94.9619 37.5185 93.8966 38.5823 92.1885 38.5823C90.8016 38.5823 89.9345 37.5674 89.5883 36.7252L87.6082 37.5674C88.1768 38.9542 89.6882 40.6625 92.1885 40.6625C94.8623 40.6625 97.1159 39.0777 97.1159 35.24V25.8549H94.9619V26.6973ZM92.3621 33.9036C90.8016 33.9036 89.49 32.5907 89.49 30.7593C89.49 28.9278 90.8028 27.5901 92.3621 27.5901C93.8979 27.5901 95.1355 28.9278 95.1355 30.7593C95.1345 32.566 93.8966 33.9036 92.3621 33.9036ZM121.951 20.3338H116.504V35.6363H118.782V29.8415H121.951C124.477 29.8415 126.953 28.0087 126.953 25.0876C126.953 22.1663 124.477 20.3338 121.951 20.3338ZM122.025 27.7135H118.806V22.4629H122.025C123.709 22.4629 124.699 23.8744 124.699 25.0874C124.675 26.276 123.71 27.7135 122.025 27.7135ZM136.041 25.5087C134.407 25.5087 132.698 26.2269 132.005 27.8612L134.011 28.7036C134.457 27.8612 135.249 27.589 136.091 27.589C137.28 27.589 138.468 28.307 138.493 29.5693V29.7184C138.072 29.4709 137.206 29.1236 136.116 29.1236C133.937 29.1236 131.732 30.3369 131.732 32.566C131.732 34.6215 133.516 35.9334 135.497 35.9334C137.032 35.9334 137.874 35.24 138.393 34.4231H138.467V35.6119H140.67V29.7428C140.646 27.0443 138.641 25.5087 136.041 25.5087ZM135.769 33.8789C135.026 33.8789 133.985 33.5069 133.985 32.5917C133.985 31.4032 135.272 30.9575 136.387 30.9575C137.377 30.9575 137.848 31.1803 138.467 31.4772C138.294 32.8887 137.08 33.8789 135.769 33.8789ZM148.619 25.8563L146.019 32.4673H145.945L143.247 25.856H140.796L144.857 35.1165L142.553 40.2918H144.93L151.145 25.856L148.619 25.8563ZM128.216 35.6363H130.495V20.3335H128.216V35.6363Z" fill="white"/>
<path d="M55.0463 13.1612V15.4335H54.099V14.1H49.7429V15.4335H48.7956V13.1612H49.5039C49.7401 12.8337 49.9143 12.3628 50.0262 11.7487C50.1385 11.1287 50.1945 10.4561 50.1945 9.73085V7.81826H54.3469V13.1612H55.0463ZM53.3553 13.1612V8.75701H51.1772V9.89754C51.1772 10.5526 51.1241 11.1609 51.0179 11.7224C50.9176 12.2839 50.7643 12.7635 50.5575 13.1612H53.3553Z" fill="white"/>
<path d="M59.0666 14.2403C58.4525 14.2403 57.8947 14.0971 57.3932 13.8104C56.8914 13.518 56.4958 13.1203 56.2065 12.6173C55.9232 12.1143 55.7818 11.5616 55.7818 10.9591C55.7818 10.3567 55.9232 9.80689 56.2065 9.30973C56.4958 8.80673 56.8914 8.40899 57.3932 8.11656C57.8947 7.82412 58.4525 7.67789 59.0666 7.67789C59.6803 7.67789 60.2353 7.82412 60.7311 8.11656C61.2326 8.40899 61.6281 8.80673 61.9172 9.30973C62.2065 9.80689 62.3513 10.3567 62.3513 10.9591C62.3513 11.5616 62.2065 12.1143 61.9172 12.6173C61.6338 13.1203 61.2414 13.518 60.7399 13.8104C60.2381 14.0971 59.6803 14.2403 59.0666 14.2403ZM59.0666 13.3016C59.4855 13.3016 59.8691 13.2022 60.2175 13.0033C60.5657 12.8044 60.8402 12.5295 61.041 12.1786C61.2414 11.8218 61.3417 11.4153 61.3417 10.9591C61.3417 10.5029 61.2414 10.0993 61.041 9.7484C60.8402 9.3916 60.5657 9.1138 60.2175 8.91493C59.8691 8.71606 59.4855 8.61664 59.0666 8.61664C58.6473 8.61664 58.2637 8.71606 57.9153 8.91493C57.5671 9.1138 57.2898 9.3916 57.083 9.7484C56.8825 10.0993 56.782 10.5029 56.782 10.9591C56.782 11.4153 56.8825 11.8218 57.083 12.1786C57.2898 12.5295 57.5671 12.8044 57.9153 13.0033C58.2637 13.2022 58.6473 13.3016 59.0666 13.3016Z" fill="white"/>
<path d="M66.3905 14.2403C65.7764 14.2403 65.2158 14.0971 64.7083 13.8104C64.2005 13.5238 63.8021 13.129 63.513 12.626C63.2237 12.1231 63.0792 11.5674 63.0792 10.9591C63.0792 10.3508 63.2237 9.79518 63.513 9.29218C63.8021 8.78919 64.2005 8.39439 64.7083 8.10778C65.2158 7.82118 65.7764 7.67789 66.3905 7.67789C66.8686 7.67789 67.3025 7.76562 67.692 7.94109C68.0873 8.11656 68.4357 8.37098 68.7368 8.70437L68.0285 9.37992C67.81 9.12257 67.5681 8.93248 67.3025 8.80965C67.0368 8.68096 66.7327 8.61664 66.3905 8.61664C65.9655 8.61664 65.576 8.71314 65.2218 8.90616C64.8734 9.09917 64.596 9.37406 64.3896 9.73085C64.1828 10.0818 64.0797 10.4912 64.0797 10.9591C64.0797 11.427 64.1828 11.8394 64.3896 12.1962C64.596 12.5471 64.8734 12.8191 65.2218 13.0121C65.576 13.2051 65.9655 13.3016 66.3905 13.3016C67.0988 13.3016 67.7009 13.0092 68.1967 12.4243L68.9138 13.1086C68.6068 13.4654 68.2378 13.7432 67.8071 13.942C67.3761 14.1409 66.904 14.2403 66.3905 14.2403Z" fill="white"/>
<path d="M71.3047 8.75701H69.5339V7.81826H74.067V8.75701H72.2963V14.1H71.3047V8.75701Z" fill="white"/>
<path d="M75.7088 14.2403C75.4903 14.2403 75.3043 14.2023 75.151 14.1263V13.17C75.3458 13.2753 75.5228 13.3279 75.6822 13.3279C75.8416 13.3279 75.9684 13.2987 76.0629 13.2402C76.1575 13.1759 76.2429 13.0589 76.3197 12.8892L76.541 12.433L74.4338 7.81826H75.5406L77.0191 11.3013H77.0723L78.5597 7.81826H79.6664L77.2405 13.0998C77.0634 13.4917 76.8481 13.7812 76.5942 13.9684C76.3463 14.1497 76.0512 14.2403 75.7088 14.2403Z" fill="white"/>
<path d="M80.5262 7.81826H85.2452V14.1H84.2536V8.75701H81.5178V14.1H80.5262V7.81826Z" fill="white"/>
<path d="M86.6909 7.81826H87.6825V10.4239H90.622V7.81826H91.6047V14.1H90.622V11.3539H87.6825V14.1H86.6909V7.81826Z" fill="white"/>
<path d="M95.9339 14.2403C95.3202 14.2403 94.7624 14.0971 94.2606 13.8104C93.7591 13.518 93.3635 13.1203 93.0742 12.6173C92.7908 12.1143 92.6492 11.5616 92.6492 10.9591C92.6492 10.3567 92.7908 9.80689 93.0742 9.30973C93.3635 8.80673 93.7591 8.40899 94.2606 8.11656C94.7624 7.82412 95.3202 7.67789 95.9339 7.67789C96.548 7.67789 97.1026 7.82412 97.5984 8.11656C98.1002 8.40899 98.4958 8.80673 98.7848 9.30973C99.0742 9.80689 99.2187 10.3567 99.2187 10.9591C99.2187 11.5616 99.0742 12.1143 98.7848 12.6173C98.5015 13.1203 98.1091 13.518 97.6073 13.8104C97.1058 14.0971 96.548 14.2403 95.9339 14.2403ZM95.9339 13.3016C96.3532 13.3016 96.7368 13.2022 97.0849 13.0033C97.4334 12.8044 97.7078 12.5295 97.9083 12.1786C98.1091 11.8218 98.2093 11.4153 98.2093 10.9591C98.2093 10.5029 98.1091 10.0993 97.9083 9.7484C97.7078 9.3916 97.4334 9.1138 97.0849 8.91493C96.7368 8.71606 96.3532 8.61664 95.9339 8.61664C95.5149 8.61664 95.1314 8.71606 94.7829 8.91493C94.4348 9.1138 94.1575 9.3916 93.9507 9.7484C93.7502 10.0993 93.6496 10.5029 93.6496 10.9591C93.6496 11.4153 93.7502 11.8218 93.9507 12.1786C94.1575 12.5295 94.4348 12.8044 94.7829 13.0033C95.1314 13.2022 95.5149 13.3016 95.9339 13.3016Z" fill="white"/>
<path d="M102.427 7.81826H104.809C105.145 7.81826 105.455 7.89136 105.738 8.03759C106.028 8.18383 106.258 8.38561 106.429 8.64295C106.6 8.9003 106.686 9.18399 106.686 9.49397C106.686 9.80395 106.606 10.073 106.446 10.3011C106.293 10.5292 106.089 10.7018 105.836 10.8187V10.8714C106.154 10.9825 106.411 11.1668 106.606 11.4241C106.807 11.6814 106.907 11.9827 106.907 12.3278C106.907 12.6728 106.816 12.9799 106.632 13.249C106.455 13.518 106.213 13.7286 105.906 13.8806C105.605 14.0269 105.275 14.1 104.915 14.1H102.427V7.81826ZM104.764 10.4503C105.048 10.4503 105.275 10.3625 105.446 10.1871C105.623 10.0116 105.712 9.80981 105.712 9.5817C105.712 9.3536 105.626 9.15472 105.455 8.98512C105.29 8.80965 105.071 8.72191 104.8 8.72191H103.419V10.4503H104.764ZM104.915 13.1875C105.216 13.1875 105.455 13.0939 105.632 12.9068C105.815 12.7196 105.906 12.5032 105.906 12.2576C105.906 12.0061 105.812 11.7897 105.623 11.6083C105.44 11.4212 105.192 11.3276 104.879 11.3276H103.419V13.1875H104.915Z" fill="white"/>
<path fill-rule="evenodd" clip-rule="evenodd" d="M34.1777 28.2979L29.444 23.5615L34.1739 18.8018C37.5523 20.6646 40.1464 22.0879 40.6447 22.349C42.2545 23.2147 41.4365 24.3293 40.6447 24.7506C40.4734 24.8358 39.0451 25.6212 36.9258 26.7864L36.924 26.7874C36.5828 26.975 36.2236 27.1725 35.8492 27.3786C35.3208 27.6694 34.7614 27.9772 34.1777 28.2979ZM33.3157 28.7715L28.7784 24.2313L13.6162 39.4891C13.7989 39.4339 13.9928 39.3506 14.1999 39.2369C14.355 39.1519 14.7323 38.9458 15.2868 38.6425L15.3167 38.6262L15.3198 38.6246C18.4405 36.9191 27.0089 32.2364 33.3157 28.7715ZM12.3774 39.3957C11.9325 39.0959 11.6996 38.4686 11.6996 37.6761V9.57052C11.6996 8.69441 12.0083 8.15531 12.4359 7.87895L28.1108 23.5633L12.3774 39.3957ZM13.5964 7.70421L28.7765 22.8935L33.2964 18.345C30.4937 16.8155 15.2119 8.47686 14.1996 7.93821C14.0073 7.82384 13.8024 7.74688 13.5964 7.70421Z" fill="white"/>
</svg>
