<svg width="160" height="60" viewBox="0 0 160 60" fill="none" xmlns="http://www.w3.org/2000/svg">
<path fill-rule="evenodd" clip-rule="evenodd" d="M35.0053 0H43.0834L29.919 26.1386H39.4931L56.5471 60H48.4688L21.4471 33.8614H0L35.0053 0ZM91.1702 16.9709C91.1702 17.5332 91.0606 18.0585 90.8415 18.5468C90.6368 19.035 90.3521 19.4641 89.9868 19.8341C89.6216 20.1892 89.1907 20.4778 88.6939 20.6996C88.2119 20.9068 87.6932 21.0104 87.138 21.0104C86.583 21.0104 86.057 20.9068 85.5602 20.6996C85.0782 20.4778 84.6546 20.1892 84.2894 19.8341C83.9388 19.4641 83.6539 19.035 83.4347 18.5468C83.2303 18.0585 83.128 17.5332 83.128 16.9709C83.128 16.4235 83.2303 15.9056 83.4347 15.4173C83.6539 14.9142 83.9388 14.4852 84.2894 14.13C84.6546 13.7601 85.0782 13.4716 85.5602 13.2644C86.057 13.0425 86.583 12.9315 87.138 12.9315C87.6932 12.9315 88.2119 13.0425 88.6939 13.2644C89.1907 13.4716 89.6216 13.7601 89.9868 14.13C90.3521 14.4852 90.6368 14.9142 90.8415 15.4173C91.0606 15.9056 91.1702 16.4235 91.1702 16.9709ZM90.1402 47.1999H84.1141V23.4295H90.1402V47.1999ZM81.4625 47.1999H59.4614V15.3729H65.7506V40.8302H81.4625V47.1999ZM94.7201 47.1999H100.703V33.6169C100.703 32.9954 100.819 32.4109 101.053 31.8635C101.287 31.3013 101.608 30.8129 102.017 30.3986C102.426 29.9843 102.908 29.6589 103.464 29.4221C104.019 29.1854 104.61 29.067 105.238 29.067C105.852 29.067 106.429 29.1854 106.97 29.4221C107.51 29.6589 107.985 29.9843 108.394 30.3986C108.803 30.8129 109.125 31.3013 109.358 31.8635C109.592 32.4109 109.709 32.9954 109.709 33.6169V47.1999H115.691V33.6169C115.691 32.152 115.414 30.776 114.858 29.4887C114.318 28.1866 113.573 27.0547 112.623 26.093C111.674 25.1164 110.564 24.3543 109.293 23.8069C108.022 23.2445 106.67 22.9636 105.238 22.9636C103.909 22.9636 102.631 23.2077 101.404 23.6959C100.191 24.1694 99.1027 24.8501 98.1386 25.7379L96.1664 23.4295H94.7201V47.1999ZM131.425 47.1999C129.979 47.1999 128.62 46.9263 127.349 46.3788C126.078 45.8165 124.961 45.0545 123.996 44.0927C123.047 43.1161 122.295 41.9842 121.739 40.6969C121.199 39.4097 120.928 38.0335 120.928 36.5688V29.5108H118.014V23.4739H120.928V13.9747H126.889V23.4739H135.961V29.5108H126.889V36.5688C126.889 37.2049 127.006 37.8043 127.24 38.3665C127.473 38.9139 127.795 39.3948 128.204 39.8091C128.613 40.2234 129.095 40.5564 129.65 40.8079C130.205 41.0446 130.797 41.163 131.425 41.163H135.961V47.1999H131.425ZM155.026 45.6907C155.581 45.2912 156.1 44.8695 156.582 44.4257L158.554 47.1999H160V23.4295H154.018V36.5688C154.018 37.2049 153.901 37.8265 153.667 38.4331C153.433 39.0249 153.112 39.5576 152.703 40.0311C152.294 40.5046 151.812 40.8894 151.257 41.1853C150.716 41.4663 150.139 41.607 149.525 41.607C148.897 41.607 148.306 41.496 147.751 41.274C147.21 41.052 146.735 40.7265 146.326 40.2975C145.917 39.8683 145.588 39.3432 145.34 38.7216C145.106 38.0853 144.989 37.3677 144.989 36.5688V23.4295H139.029V36.5688C139.029 38.2703 139.299 39.8091 139.84 41.1853C140.395 42.5465 141.147 43.7079 142.097 44.6698C143.061 45.6168 144.179 46.3492 145.45 46.8671C146.721 47.385 148.079 47.6439 149.525 47.6439C150.183 47.6439 150.826 47.555 151.454 47.3774C152.097 47.2148 152.718 46.9928 153.316 46.7116C153.915 46.4157 154.485 46.0754 155.026 45.6907Z" fill="white"/>
</svg>
